<svg xmlns="http://www.w3.org/2000/svg" height="512" viewBox="0 0 512.349 512.349" width="512" xmlns:v="https://vecta.io/nano"><path d="M512.349 150.196v341.995c0 11.046-8.954 20-20 20s-20-8.954-20-20V150.196c0-22.054-17.94-39.998-39.991-40l-71.009-.005c-31.635 0-72.656 22.59-89.686 42.864a20 20 0 0 1-15.112 7.135c-5.831.026-11.409-2.436-15.253-6.829-17.866-20.418-59.201-43.17-89.948-43.17l-71.008.005c-22.051.002-39.992 17.946-39.992 40v55.083c0 67.629 45.039 117.202 107.108 117.912 60.484.868 58.492-28.017 108.892-29.989 21.45.001 35.082 7.596 47.109 14.296 22.785 15.626 72.772 23.436 106.982 4.785 24.048-10.942 41.168 23.089 17.818 35.814-46.741 25.482-113.508 15.031-144.267-5.657-20.023-12.379-35.279-12.362-55.284.002-50.098 32.317-141.55 28.961-188.223-26.715C-3.161 267.075-.488 213.016.351 150.195c-.002-44.107 35.881-79.995 79.986-80l71.012-.005c20.454 0 42.54 6.239 62.778 15.719-21.318-27.835-54.33-45.728-89.792-45.752-11.046-.008-19.994-8.968-19.986-20.014S113.319.148 124.363.157c35.834.024 70.942 13.283 98.856 37.332 13.391 11.537 24.694 25.178 33.528 40.225a160.1 160.1 0 0 1 33.528-40.225C318.189 13.44 353.296.182 389.131.157c11.045-.008 20.006 8.94 20.014 19.986s-8.94 20.006-19.986 20.014c-34.998.024-67.607 17.456-88.947 44.669 19.604-8.87 40.983-14.637 61.139-14.637l71.013.005c44.103.006 79.985 35.894 79.985 80.002zM147.823 283.19c-42.509.128-68.145-37.195-67.473-77.911-.001-30.373 24.71-55.085 55.083-55.087l15.915-.001c35.163 1.157 51.333 20.246 65.695 35.908 20.874 20.925 16.676 58.291-8.331 74.056-19.682 12.811-31.326 23.755-60.889 23.035zm3.526-92.999l-15.914.001c-8.318 0-15.086 6.769-15.086 15.087 0 8.766 1.997 37.357 27.642 37.91 12.362-.032 13.343-.58 22.314-5.577 2.334-1.301 5.528-3.486 9.227-6.016l7.155-4.832c2.904-1.916 3.617-4.683 3.783-6.161s.086-4.329-2.317-6.838c-2.328-2.43-4.703-5.029-7.061-7.723-5.18-5.92-15.932-15.851-29.743-15.851zm213.526 92.999c-29.514.731-41.268-10.211-60.889-23.035-24.998-15.765-29.213-53.132-8.33-74.056 14.317-15.673 30.563-34.754 65.694-35.909 0 .001 15.915.002 15.915.002 30.374.002 55.084 24.714 55.084 55.087.673 40.709-24.965 78.048-67.474 77.911zm-3.526-92.999c-13.811 0-24.562 9.931-29.743 15.851-2.358 2.695-4.734 5.293-7.061 7.724-2.403 2.509-2.483 5.361-2.317 6.838s.879 4.246 3.784 6.162l16.38 10.847c8.973 4.998 9.954 5.545 22.315 5.578 25.645-.553 27.642-29.144 27.642-37.91 0-8.319-6.768-15.087-15.086-15.087z"/></svg>